<?xml version="1.0" encoding="utf-8"?>
<!-- Generator: Adobe Illustrator 25.4.1, SVG Export Plug-In . SVG Version: 6.00 Build 0)  -->
<svg version="1.1" id="Layer_1" xmlns="http://www.w3.org/2000/svg" xmlns:xlink="http://www.w3.org/1999/xlink" x="0px" y="0px"
	 viewBox="0 0 1720.2 1536.2" style="enable-background:new 0 0 1720.2 1536.2;" xml:space="preserve">
<style type="text/css">
	.st0{fill:none;}
	.st1{fill:#CFAFC6;}
	.st2{fill:#E2A53C;}
	.st3{fill:#E2A53B;}
</style>
<path class="st0" d="M920.3,1731c-340.3,0-680.2,0-1020,0c0-640,0-1280,0-1920c640,0,1280,0,1920,0c0,640,0,1280,0,1920
	C1520.5,1731,1220.6,1731,920.3,1731 M1286.6,1534.9c0.4-0.9,1.4-2,1.2-2.7c-2.5-9.6-4.7-19.3-7.9-28.7
	c-6.3-18.5-16.9-34.7-30.1-48.9c-10.4-11.2-21-22.4-34.6-30c-10.3-5.8-20.1-12.7-30.9-17.5c-11.3-5-22.8-9.9-35.5-10.9
	c-8.9-0.7-17.8-3.1-26.7-3.4c-10.9-0.4-21.9,0.5-33.2,0.9c1.2-11.2-2.1-22.4-5.4-33.4c-4.4-14.2-11.1-27.4-19.8-39.4
	c-5.8-7.9-11.4-16.1-18.1-23.2c-11.1-11.8-22-23.9-35.6-33.2c-11.2-7.7-21.5-16.9-33.3-23.5c-16.4-9.2-33.2-18-51.3-24.1
	c-17.2-5.8-34.4-11-52.7-12.9c-13.6-1.4-27-2.3-40.6-0.8c-15.2,1.6-29.5,5.6-42.1,13.8c-2.2-2.9-5.2-5.4-6.5-8.6
	c-5.7-13.8-12.1-27.1-20.2-39.8c-7.6-12-15.7-23.5-25.5-33.7c-6.1-6.4-12.1-13-18.8-18.8c-7-6-14.4-11.6-22.2-16.5
	c-11.4-7.1-22.9-14.6-35.2-19.9c-15.9-6.8-32.2-13.3-49.5-16c-9.2-1.4-18.2-4-27.4-4.6c-12.6-0.8-25.3-0.1-38-0.2
	c-16-0.1-31.7,2.2-47.3,5.6c-18.5,4-36.3,10.3-53.4,18.3c-8.6,4-16.6,9.2-24.9,13.8c-14,7.7-26.6,17.5-38,28.6
	c-10.7,10.4-20.7,21.6-30.2,33.1c-6.3,7.5-11.5,15.9-16.5,24.4c-5.7,9.6-10.5,19.7-15.6,29.4c-8.7-0.7-17.4-2-26.1-2
	c-8.6-0.1-17.2,1-25.8,1.7c-9.7,0.8-19.6,0.9-29,3c-16.1,3.7-32.2,7.9-47.8,13.3c-19.4,6.8-37.4,16.9-55,27.6
	c-15.6,9.5-29.7,21-42.8,33.5c-11.9,11.4-23.1,23.5-33.3,36.6c-10,12.7-18.4,26.3-26.2,40.2c-12.2,21.7-20.8,45.2-27.2,69.3
	c-4.3,16.2-7.2,32.8-7.6,49.6c-0.3,12.2,1.5,24.5,2.7,36.8c0.4,4.5,1.6,8.9,2.4,13.7c10,0,19.7,0,29.8,0.6c1.2,0.1,2.5,0.2,3.7,0.2
	c414.3,0,828.7,0,1243,0C1283.1,1536,1284.5,1535.5,1286.6,1534.9 M1439.7,221.1c-0.3-2-0.7-3.9-0.9-5.9c-1-15.4-2-30.8-2.8-46.1
	c-0.4-7.2-0.6-14.5-1-21.7c-0.2-4.9-3.9-7.1-7.8-8.1c-5.3-1.4-11,0.6-12.7,4.1c-2.2,4.5-4.3,8.9-3.9,14.3c0.5,6.7,0.2,13.4,0,20.1
	c-0.1,3.8-0.8,7.6-0.8,11.4c0.1,7.3,2.2,14.9,0.5,21.7c-5.7,23.7-11.3,47.8-28.1,66.9c-8.2,9.3-16.7,18.7-26.1,26.8
	c-11,9.4-23.8,16.3-37.1,22.1c-19.7,8.5-40.2,13.6-61.7,14.1c-6.8,0.2-13.6-0.7-20.5-0.8c-5.8-0.1-10.6,4.3-10.8,9.3
	c-0.3,8.2,3.6,14.4,9.8,14.9c6.6,0.6,13.3,0.7,19.9,1c10.8,0.4,21.4-0.6,32,3.6c15.5,6.2,29,14.8,41.3,25.8
	c-52.2,152.2-104.4,304.1-156.7,456.5c-0.8-1-1.3-1.5-1.5-2c-5.4-15.1-10.7-30.2-16-45.3c-11.6-32.8-23.2-65.5-34.7-98.3
	c-14.2-40.6-28.3-81.2-42.6-121.7c-15-42.6-30-85.1-45.1-127.6c-9.5-26.9-19.2-53.7-28.4-80.7c-1.1-3.3-2.6-3.8-5.6-3.8
	c-47.5,0.1-95,0-142.5,0c-1.5,0-3,0-4.7,0c0,204.2,0,408,0,611.9c34.4,0,68.5,0,103,0c0-157,0-313.8,0-471.3
	c0.9,1.3,1.4,1.9,1.7,2.6c6.6,18.2,13.2,36.4,19.8,54.6c11.6,32.1,23.2,64.3,34.7,96.4c13.7,38.2,27.2,76.4,40.9,114.6
	c15.4,42.8,30.8,85.5,46.3,128.2c10.8,29.7,19.9,59.9,31.8,89.1c3.7,9.1,6.8,18.4,10.5,27.5c5.7,14.1,11.8,28,17.7,42
	c2.6,6.2,4.9,12.5,7.9,18.5c1,2.1,3.4,4.3,5.5,4.7c1.4,0.3,4.1-2.2,5-4.1c4-8.5,7.8-17,11.2-25.8c4-10.6,7.4-21.4,11.3-32
	c5-13.5,10.6-26.9,15.4-40.5c5.6-15.8,10.4-32,15.9-47.8c9.8-28,20-56,30-83.9c11.5-32.1,23.1-64.3,34.7-96.4
	c11.6-32.3,23.2-64.5,34.7-96.8c14.4-40.3,28.8-80.7,43.2-121c3.6-9.9,7.2-19.9,10.8-29.8c0.4,0.1,0.8,0.1,1.2,0.2
	c0,157.1,0,314.2,0,471.2c34.5,0,68.2,0,102.3,0c0-2.2,0-4.2,0-6.2c0-156.6,0-313.1,0-469.7c0-26.2,0-52.5,0-78.7
	c0-1.6,0.1-3.7,1-4.8c3.9-4.8,7.8-9.7,12.3-13.8c9.6-8.8,19.9-16.8,32-22.1c10.8-4.8,21.3-10.4,34-9.5c8.4,0.6,16.9-0.7,25.3-1.7
	c6.9-0.8,11.6-7.5,10.7-14.1c-0.9-6.1-7.5-10.7-13.8-10.3c-7.4,0.6-15.1,1.8-22.3,0.7c-10-1.6-20.2-4.1-29.3-8.3
	c-10.8-5-20.8-11.9-30.5-18.9c-8-5.7-15.7-12.2-22.6-19.3s-12.8-15.3-18.5-23.4c-7.4-10.4-15.3-20.8-19.2-33.2
	C1442.9,241.2,1441.7,231.5,1439.7,221.1 M484,714.5c-0.2-1-0.5-2.1-0.5-3.1c0.2-8.6,0.3-17.2,0.9-25.8c1-12.7,2.4-25.4,3.8-38.1
	c1.4-13,2.3-26.1,4.7-39c3.1-17,7.1-34,11.3-50.8c3.6-14.4,7.7-28.7,12.2-42.8c3.5-10.9,8-21.5,12.2-32.2
	c3.9-9.9,7.9-19.7,11.9-29.5c2-4.8,4-9.7,6.5-14.3c5.7-10.6,11.7-21.1,17.7-31.6s11.5-21.3,18.1-31.4c9.9-14.9,20.3-29.5,31.1-43.8
	c9-12,18.1-23.8,28.2-34.9c13-14.3,26.9-28,40.7-41.6c6.8-6.7,14-13.1,21.4-19.1c12.1-9.9,24.5-19.4,36.9-29
	c6.3-4.9,12.7-9.9,19.4-14.2c14.1-8.9,28.4-17.7,42.9-26c11.2-6.5,22.7-12.4,34.3-18.2c10.3-5.1,20.7-10,31.3-14.5
	c11.7-4.9,23.5-9.5,35.4-13.7c11.6-4.1,23.2-8.1,35-11.4c13.2-3.7,26.6-6.6,40-9.7c9.3-2.1,18.7-4,28.1-5.7c5.4-1,10.9-1.4,16.4-2.1
	c8.6-1.1,17.3-2.5,25.9-3.5c7.5-0.8,15-1.1,22.5-1.9c3.8-0.4,5.9-3.5,6.4-6.8c0.3-1.7-1.1-4.7-2.6-5.5c-2.9-1.5-6.4-2.3-9.8-2.8
	c-14.2-2-28.4-4.2-42.7-5.5c-12.5-1.1-25-1.3-37.6-1.7c-10.8-0.3-21.6-0.2-32.4-0.3c-3.2,0-6.4-0.7-9.6-0.6
	c-3.2,0.2-6.4,1.5-9.6,1.4c-20-0.2-39.9,0.9-59.7,3.8c-14.1,2.1-28.4,3.3-42.4,5.8c-15.6,2.8-31,6.4-46.3,10.2
	c-11.8,2.9-23.4,6.6-35,10.1c-13,3.9-26.1,7.7-38.8,12.3c-10.4,3.8-20.4,8.6-30.6,13c-14.1,6.1-28.4,11.7-42.1,18.5
	c-14.2,7-28.2,14.6-41.8,22.7c-16.5,9.9-32.7,20.3-48.8,30.9c-8,5.3-15.6,11.2-23.3,17c-9.8,7.5-19.6,15-29.1,23
	c-8.7,7.4-17,15.3-25.4,23.1c-9.5,8.9-19,17.6-28,27c-9.4,9.7-18.5,19.8-27,30.3c-15,18.4-30.1,36.7-44.1,55.9
	c-11.3,15.5-21.3,32.1-31.3,48.6c-8.3,13.8-15.9,28-23.2,42.3c-6,11.8-11.6,23.9-16.6,36.1c-8.1,20-16.1,40.2-23.2,60.6
	c-5.3,15.2-9.3,30.8-13.6,46.2c-2.1,7.5-4.1,15-5.7,22.6c-2.2,10.3-4,20.7-5.8,31c-2.2,12.8-4.5,25.6-6.3,38.5
	c-1.1,7.6-1.2,15.3-1.8,22.9c-1,13.1-2.6,26.1-2.8,39.2c-0.3,19.1,0.3,38.2,1,57.3c0.5,13.8,1.5,27.7,2.8,41.5
	c1.2,12.4,2.8,24.8,4.7,37.2c2.2,14.2,4.5,28.5,7.5,42.6c2.4,11.6,5.8,23,8.9,34.4c3.3,11.7,6.6,23.4,10.3,35
	c2.9,9,6.2,17.8,9.6,26.5c5.5,14.1,10.9,28.1,16.8,42c4.4,10.4,9.2,20.7,14.2,30.8c4.3,8.6,9.1,16.9,14,26
	c64.8-66.4,142.2-102.6,235.8-102.7c-3.3-6.4-6.3-12.3-9.4-18.2c-5.4-10.3-11.5-20.2-16.2-30.8c-7-15.8-13.2-31.9-19.4-48
	c-4.2-10.8-8.2-21.8-11.4-32.9c-3.8-13.1-6.6-26.4-9.9-39.7c-1.4-5.8-3.2-11.5-4.4-17.3c-1.7-8.7-3.1-17.4-4.4-26.1
	c-1.5-10.1-2.9-20.2-4-30.4c-0.8-7-1.3-14-1.9-21c-0.4-4.3-0.7-8.6-0.9-12.9C484.8,738.3,484.2,726.7,484,714.5 M1537.3,1179.3
	c-9.4,8.1-18.4,16.8-28.3,24.3c-14.9,11.5-30.1,22.5-45.6,33.1c-11,7.5-22.5,14.3-33.9,21c-8.5,5-17.3,9.6-26,14.2
	c-9.6,5-19.2,10.4-29.2,14.6c-17.5,7.3-35.3,14-53,20.7c-10.6,4-21.2,8.1-32.1,11.1c-14.6,4-29.5,7.1-44.3,10.5
	c-3.7,0.8-7.5,1.4-11.2,2.1c-11.6,2.1-23.2,4.5-34.9,6.2c-9.4,1.4-18.8,2.1-28.3,2.8c-13.7,1.1-27.3,2.1-41,2.8
	c-8.4,0.4-16.8,0.1-26.2,0.1c2.7,6.8,5.1,12.8,7.5,18.8c18.7-0.6,36.7,2,54.2,7.5s34.1,13.3,49.6,23c16.2,10.3,31.3,22,44.6,36
	c2.9,3.1,6,3.6,9.8,1.6c13.3-7.1,26.9-13.8,40-21.2c14.8-8.4,29.5-17.1,43.8-26.3c12.1-7.8,23.7-16.5,35.4-24.9
	c7.5-5.3,15.1-10.5,22-16.5c16.7-14.4,33.5-28.7,49.2-44c14.4-14,27.9-29.1,41.3-44.2c10.7-12,20.9-24.4,30.8-37
	c6.5-8.3,12.4-17.1,18.2-25.8c2.4-3.6,0.5-9-3.2-12.5C1543,1174.1,1540.6,1177,1537.3,1179.3 M1585.9,83.2
	c-5.8,6.6-11.1,13.8-17.6,19.7c-11.9,10.9-26.6,12.2-41.8,9.6c-5.5-0.9-10.5-0.6-14.4,3.5c-3.7,3.9-2.3,8.8-1.3,13.5
	c0.9,4.5,3.7,6.6,8.2,6.9s9,0.6,13.4,1.4c12.8,2.5,23.1,9.7,31.9,18.7c12.4,12.8,20.4,28.4,26.4,45c5.5,15.3,9,31,9.4,47.3
	c0.2,6,0.6,12,0.9,18.1c0.1,1.3,0.2,2.8,0.8,3.9c2.2,4.1,6.8,6.1,11.6,5.3c4.2-0.7,8.6-5.1,9.1-9.7c1.6-12.9,2.9-25.8,4.8-38.7
	c2.9-19.7,9.8-37.9,21.1-54.5c6.7-9.8,11.9-20.5,21.7-27.9c12.3-9.3,25.8-14.5,41.2-14.6c5.6,0,9.3-2.3,9.6-6.3
	c0.4-6.5-3.3-12-8.8-12.4c-6.5-0.5-13-1.1-19.5-0.9c-17.6,0.6-32.8-6.2-45.2-17.3c-22.5-20.3-30.2-46.4-25.4-76.3
	c0.7-4.5-0.4-9.9-2.3-14.1c-1.5-3.3-6.2-4.2-9.8-2.7c-4,1.7-6,5.3-6.3,9.7c-0.5,8.9-0.7,17.9-1.8,26.7
	C1599.9,53.4,1594.9,68.7,1585.9,83.2"/>
<path class="st1" d="M34.4,1535.3c-9.6,0-19.3,0-29.3,0c-0.9-4.8-2-9.2-2.4-13.7c-1.1-12.2-2.9-24.5-2.7-36.8
	c0.4-16.7,3.3-33.3,7.6-49.6c6.4-24.1,15-47.6,27.2-69.3c7.8-13.9,16.2-27.5,26.2-40.2c10.3-13.1,21.4-25.2,33.3-36.6
	c13.1-12.5,27.3-24,42.8-33.5c17.6-10.8,35.6-20.8,55-27.6c15.6-5.5,31.7-9.7,47.8-13.3c9.4-2.1,19.3-2.2,29-3
	c8.6-0.7,17.2-1.8,25.8-1.7c8.7,0.1,17.4,1.3,26.1,2c5.1-9.7,10-19.8,15.6-29.4c5-8.4,10.3-16.9,16.5-24.4
	c9.5-11.5,19.6-22.6,30.2-33.1c11.4-11.1,24-20.9,38-28.6c8.3-4.6,16.3-9.8,24.9-13.8c17.1-8,34.8-14.3,53.4-18.3
	c15.6-3.4,31.3-5.7,47.3-5.6c12.7,0.1,25.4-0.6,38,0.2c9.2,0.6,18.3,3.2,27.4,4.6c17.4,2.7,33.6,9.1,49.5,16
	c12.3,5.3,23.8,12.7,35.2,19.9c7.8,4.9,15.2,10.5,22.2,16.5c6.7,5.8,12.7,12.4,18.8,18.8c9.8,10.2,17.9,21.7,25.5,33.7
	c8,12.7,14.5,26,20.2,39.8c1.3,3.2,4.3,5.7,6.5,8.6c12.6-8.2,26.9-12.2,42.1-13.8c13.6-1.4,27-0.6,40.6,0.8
	c18.2,1.9,35.4,7,52.7,12.9c18.1,6.1,34.8,14.9,51.3,24.1c11.8,6.6,22.1,15.8,33.3,23.5c13.5,9.3,24.5,21.4,35.6,33.2
	c6.7,7.1,12.3,15.3,18.1,23.2c8.7,12,15.4,25.2,19.8,39.4c3.4,11,6.6,22.1,5.4,33.4c11.3-0.4,22.3-1.3,33.2-0.9
	c8.9,0.3,17.8,2.7,26.7,3.4c12.7,1,24.2,5.9,35.5,10.9c10.7,4.8,20.6,11.6,30.9,17.5c13.6,7.7,24.2,18.8,34.6,30
	c13.1,14.3,23.8,30.4,30.1,48.9c3.2,9.4,5.4,19.1,7.9,28.7c0.2,0.8-0.8,1.8-1.9,2.8c-1.7,0.1-2.6,0.1-3.6,0.1
	c-392.5,0-785.1,0-1177.6,0C81.3,1535.1,57.8,1535.2,34.4,1535.3z"/>
<path class="st2" d="M1439.7,221.6c2,9.9,3.2,19.7,6.1,28.9c3.8,12.4,11.8,22.7,19.2,33.2c5.8,8.1,11.7,16.2,18.5,23.4
	c6.8,7.1,14.5,13.6,22.6,19.3c9.7,6.9,19.7,13.8,30.5,18.9c9.1,4.3,19.3,6.7,29.3,8.3c7.2,1.2,14.9-0.1,22.3-0.7
	c6.3-0.5,12.9,4.1,13.8,10.3c1,6.7-3.7,13.3-10.7,14.1c-8.4,1-17,2.3-25.3,1.7c-12.7-1-23.2,4.7-34,9.5c-12,5.3-22.3,13.3-32,22.1
	c-4.5,4.1-8.4,9-12.3,13.8c-0.9,1.1-1,3.2-1,4.8c-0.1,26.2,0,52.5,0,78.7c0,156.6,0,313.1,0,469.7c0,2,0,4,0,6.2
	c-34.1,0-67.8,0-102.3,0c0-157,0-314.1,0-471.2c-0.4-0.1-0.8-0.1-1.2-0.2c-3.6,9.9-7.2,19.8-10.8,29.8
	c-14.4,40.3-28.8,80.7-43.2,121c-11.5,32.3-23.1,64.6-34.7,96.8c-11.5,32.1-23.1,64.3-34.7,96.4c-10,28-20.2,55.9-30,83.9
	c-5.6,15.9-10.3,32-15.9,47.8c-4.8,13.6-10.4,27-15.4,40.5c-3.9,10.6-7.3,21.5-11.3,32c-3.3,8.7-7.2,17.3-11.2,25.8
	c-0.9,1.9-3.6,4.3-5,4.1c-2.1-0.4-4.5-2.6-5.5-4.7c-3-6-5.3-12.3-7.9-18.5c-5.9-14-11.9-27.9-17.7-42c-3.7-9.1-6.8-18.4-10.5-27.5
	c-11.9-29.3-21.1-59.5-31.8-89.1c-15.5-42.7-31-85.4-46.3-128.2c-13.7-38.2-27.2-76.4-40.9-114.6c-11.5-32.2-23.1-64.3-34.7-96.4
	c-6.6-18.2-13.2-36.4-19.8-54.6c-0.2-0.7-0.8-1.2-1.7-2.6c0,157.6,0,314.3,0,471.3c-34.5,0-68.6,0-103,0c0-203.8,0-407.6,0-611.9
	c1.7,0,3.2,0,4.7,0c47.5,0,95,0,142.5,0c2.9,0,4.4,0.4,5.6,3.8c9.3,27,18.9,53.8,28.4,80.7c15,42.5,30.1,85.1,45.1,127.6
	c14.3,40.5,28.4,81.1,42.6,121.7c11.5,32.8,23.1,65.6,34.7,98.3c5.3,15.1,10.7,30.2,16,45.3c0.2,0.5,0.7,1,1.5,2
	c52.3-152.4,104.5-304.4,156.7-456.5c-12.2-11.1-25.8-19.7-41.3-25.8c-10.6-4.2-21.3-3.2-32-3.6c-6.6-0.3-13.3-0.4-19.9-1
	c-6.2-0.5-10.1-6.7-9.8-14.9c0.2-5,5-9.3,10.8-9.3c6.8,0.1,13.6,1,20.5,0.8c21.5-0.5,42-5.6,61.7-14.1c13.3-5.7,26.1-12.7,37.1-22.1
	c9.5-8.1,17.9-17.4,26.1-26.8c16.8-19.1,22.4-43.1,28.1-66.9c1.6-6.8-0.4-14.5-0.5-21.7c0-3.8,0.7-7.6,0.8-11.4
	c0.2-6.7,0.5-13.4,0-20.1c-0.4-5.4,1.7-9.8,3.9-14.3c1.7-3.5,7.4-5.5,12.7-4.1c3.9,1.1,7.6,3.2,7.8,8.1c0.4,7.2,0.5,14.5,1,21.7
	c0.9,15.4,1.9,30.8,2.8,46.1C1438.9,217.2,1439.4,219.2,1439.7,221.6z"/>
<path class="st2" d="M483.8,714.8c0.4,11.9,1,23.5,1.6,35.1c0.2,4.3,0.6,8.6,0.9,12.9c0.6,7,1.1,14,1.9,21c1.2,10.1,2.5,20.3,4,30.4
	c1.3,8.7,2.7,17.5,4.4,26.1c1.2,5.8,3,11.6,4.4,17.3c3.3,13.2,6.1,26.6,9.9,39.7c3.2,11.2,7.3,22.1,11.4,32.9
	c6.2,16.1,12.4,32.2,19.4,48c4.7,10.6,10.8,20.5,16.2,30.8c3.1,5.9,6.1,11.8,9.4,18.2c-93.7,0.1-171.1,36.4-235.8,102.7
	c-4.9-9-9.8-17.4-14-26c-5-10.1-9.8-20.4-14.2-30.8c-5.9-13.9-11.3-28-16.8-42c-3.4-8.8-6.8-17.6-9.6-26.5
	c-3.7-11.6-7.1-23.3-10.3-35c-3.2-11.4-6.5-22.8-8.9-34.4c-3-14.1-5.3-28.3-7.5-42.6c-1.9-12.3-3.5-24.8-4.7-37.2
	c-1.3-13.8-2.3-27.6-2.8-41.5c-0.7-19.1-1.2-38.2-1-57.3c0.2-13.1,1.8-26.1,2.8-39.2c0.6-7.6,0.8-15.4,1.8-22.9
	c1.8-12.9,4.1-25.7,6.3-38.5c1.8-10.4,3.7-20.7,5.8-31c1.6-7.6,3.6-15.1,5.7-22.6c4.4-15.5,8.4-31.1,13.6-46.2
	c7.1-20.4,15.1-40.6,23.2-60.6c5-12.3,10.6-24.3,16.6-36.1c7.3-14.3,15-28.5,23.2-42.3c9.9-16.5,20-33,31.3-48.6
	c13.9-19.2,29-37.5,44.1-55.9c8.6-10.5,17.7-20.5,27-30.3c9-9.3,18.6-18.1,28-27c8.3-7.8,16.6-15.7,25.4-23.1
	c9.4-8,19.3-15.5,29.1-23c7.6-5.9,15.2-11.8,23.3-17c16.1-10.6,32.2-21.1,48.8-30.9c13.6-8.1,27.6-15.7,41.8-22.7
	c13.8-6.7,28.1-12.4,42.1-18.5c10.2-4.4,20.2-9.3,30.6-13c12.8-4.6,25.8-8.4,38.8-12.3c11.6-3.5,23.2-7.2,35-10.1
	c15.3-3.8,30.8-7.4,46.3-10.2c14-2.5,28.3-3.7,42.4-5.8c19.8-3,39.7-4.1,59.7-3.8c3.2,0,6.4-1.3,9.6-1.4c3.2-0.2,6.4,0.5,9.6,0.6
	c10.8,0.2,21.6,0,32.4,0.3c12.5,0.3,25.1,0.5,37.6,1.7c14.3,1.3,28.5,3.5,42.7,5.5c3.3,0.5,6.8,1.2,9.8,2.8c1.5,0.8,2.9,3.8,2.6,5.5
	c-0.5,3.3-2.6,6.3-6.4,6.8c-7.5,0.8-15,1.1-22.5,1.9c-8.7,1-17.3,2.3-25.9,3.5c-5.5,0.7-11,1.1-16.4,2.1c-9.4,1.7-18.8,3.6-28.1,5.7
	c-13.4,3-26.8,6-40,9.7c-11.8,3.3-23.5,7.3-35,11.4c-11.9,4.3-23.8,8.8-35.4,13.7c-10.6,4.5-21,9.4-31.3,14.5
	c-11.6,5.8-23.1,11.7-34.3,18.2c-14.5,8.3-28.7,17.1-42.9,26c-6.8,4.3-13.1,9.3-19.4,14.2c-12.4,9.6-24.8,19.1-36.9,29
	c-7.4,6-14.6,12.4-21.4,19.1c-13.8,13.6-27.6,27.3-40.7,41.6c-10,11-19.2,22.9-28.2,34.9c-10.7,14.3-21.2,28.9-31.1,43.8
	c-6.7,10.1-12.2,20.9-18.1,31.4c-6,10.5-11.9,21-17.7,31.6c-2.5,4.6-4.4,9.5-6.5,14.3c-4.1,9.8-8.1,19.6-11.9,29.5
	c-4.2,10.7-8.7,21.3-12.2,32.2c-4.6,14.1-8.6,28.4-12.2,42.8c-4.2,16.8-8.2,33.7-11.3,50.8c-2.3,12.8-3.3,26-4.7,39
	c-1.4,12.7-2.8,25.4-3.8,38.1c-0.7,8.6-0.7,17.2-0.9,25.8C483.5,712.4,483.8,713.4,483.8,714.8z"/>
<path class="st3" d="M1537.6,1179.1c3-2,5.4-5,9.1-1.6c3.7,3.5,5.6,8.9,3.2,12.5c-5.8,8.8-11.7,17.6-18.2,25.8
	c-10,12.6-20.2,25-30.8,37c-13.4,15-26.8,30.1-41.3,44.2c-15.8,15.3-32.6,29.6-49.2,44c-6.9,6-14.6,11.1-22,16.5
	c-11.7,8.4-23.3,17.1-35.4,24.9c-14.3,9.2-29,17.9-43.8,26.3c-13.1,7.4-26.7,14.1-40,21.2c-3.8,2-6.9,1.5-9.8-1.6
	c-13.3-13.9-28.4-25.7-44.6-36c-15.5-9.8-32-17.6-49.6-23c-17.6-5.5-35.5-8.1-54.2-7.5c-2.4-6-4.8-12-7.5-18.8
	c9.4,0,17.8,0.3,26.2-0.1c13.7-0.7,27.3-1.7,41-2.8c9.4-0.7,18.9-1.4,28.3-2.8c11.7-1.7,23.3-4.1,34.9-6.2c3.7-0.7,7.5-1.2,11.2-2.1
	c14.8-3.4,29.7-6.5,44.3-10.5c10.9-3,21.5-7.1,32.1-11.1c17.8-6.7,35.5-13.3,53-20.7c10-4.2,19.5-9.6,29.2-14.6
	c8.7-4.6,17.5-9.2,26-14.2c11.5-6.8,23-13.5,33.9-21c15.5-10.6,30.7-21.7,45.6-33.1C1518.9,1196.1,1527.9,1187.5,1537.6,1179.1z"/>
<path class="st2" d="M1585.9,82.8c9-14.2,14-29.5,16-45.7c1.1-8.8,1.3-17.8,1.8-26.7c0.3-4.5,2.3-8.1,6.3-9.7
	c3.6-1.5,8.3-0.7,9.8,2.7c1.9,4.2,3,9.6,2.3,14.1c-4.8,30,2.9,56,25.4,76.3c12.4,11.1,27.6,17.9,45.2,17.3c6.5-0.2,13,0.4,19.5,0.9
	c5.6,0.5,9.3,5.9,8.8,12.4c-0.3,4-3.9,6.2-9.6,6.3c-15.4,0.1-28.9,5.3-41.2,14.6c-9.9,7.5-15.1,18.2-21.7,27.9
	c-11.3,16.5-18.3,34.7-21.1,54.5c-1.9,12.9-3.2,25.8-4.8,38.7c-0.6,4.5-4.9,9-9.1,9.7c-4.8,0.8-9.4-1.2-11.6-5.3
	c-0.6-1.1-0.7-2.6-0.8-3.9c-0.4-6-0.8-12-0.9-18.1c-0.4-16.3-3.9-32-9.4-47.3c-6-16.6-14-32.2-26.4-45c-8.8-9.1-19.1-16.3-31.9-18.7
	c-4.4-0.8-8.9-1.1-13.4-1.4s-7.2-2.3-8.2-6.9c-1-4.7-2.3-9.6,1.3-13.5c3.8-4.1,8.8-4.4,14.4-3.5c15.2,2.5,29.9,1.2,41.8-9.6
	C1574.8,97,1580.1,89.8,1585.9,82.8z"/>
</svg>
